PathFileType	3	(X/Y/Z)	walking_3__view2_aligned.trc
DataRate	CameraRate	NumFrames	NumMarkers	Units	OrigDataRate	OrigDataStartFrame	OrigNumFrames
100.0	100.0	9	19	mm	100.0	3415	6318
Frame#	Time	pelvis			neck			head			hip_left			hip_right			knee_left			knee_right			ankle_left			ankle_right			heel_left			heel_right			toe_left			toe_right			shoulder_left			shoulder_right			elbow_left			elbow_right			wrist_left			wrist_right			
		X1	Y1	Z1	X2	Y2	Z2	X3	Y3	Z3	X4	Y4	Z4	X5	Y5	Z5	X6	Y6	Z6	X7	Y7	Z7	X8	Y8	Z8	X9	Y9	Z9	X10	Y10	Z10	X11	Y11	Z11	X12	Y12	Z12	X13	Y13	Z13	X14	Y14	Z14	X15	Y15	Z15	X16	Y16	Z16	X17	Y17	Z17	X18	Y18	Z18	X19	Y19	Z19	
3415	34.14000	125.465087	935.355308	41.419275	130.654190	1503.748357	98.016504	135.499035	1598.942752	244.096023	201.971199	937.170333	37.393878	48.959023	933.540278	45.444679	226.478090	518.667475	198.992020	-3.107209	505.187501	74.052086	219.094795	80.908551	237.664623	-37.101663	218.267878	-250.846493	211.911679	22.207222	214.204280	-35.822497	207.805295	-308.053799	219.845957	60.675272	442.782952	-57.186500	54.859528	-172.899084	304.277488	1444.165614	30.691052	-55.810078	1447.624241	96.185903	370.175138	1156.078556	-39.342006	-126.862000	1161.138666	150.258872	441.189547	885.500423	-80.304682	-68.945954	983.816747	344.109594
3416	34.15000	130.386551	935.320592	40.768649	135.529840	1503.866684	97.567092	139.654332	1599.058838	243.674390	206.907489	937.293720	36.523090	53.865613	933.347464	45.014212	230.327431	516.904807	192.729838	0.690654	506.722134	80.796441	222.247769	78.321182	231.316407	-34.684974	220.899968	-247.007865	214.910374	19.530256	207.920468	-33.493253	211.142039	-304.608352	223.519382	58.237165	436.303090	-54.405466	54.907263	-171.014244	309.527992	1444.082425	31.487073	-50.703621	1447.965853	94.441487	375.380496	1155.721773	-37.423542	-122.352670	1161.438921	146.272024	444.672800	884.644946	-77.273827	-66.046584	982.827713	337.256416
3417	34.16000	132.288853	935.420032	39.959490	136.519653	1503.973161	96.650250	139.960797	1598.781958	242.831963	208.857393	937.691831	35.649689	55.720264	933.148238	44.269290	231.846370	516.199816	183.945483	2.124696	508.381963	88.322529	223.903912	78.082228	217.096281	-34.001409	221.943367	-234.246333	216.562222	19.631387	193.139467	-32.880226	211.961621	-291.348986	225.976581	56.115496	421.549168	-53.357972	57.120668	-158.034909	310.776311	1444.206933	32.064945	-49.167372	1448.320451	91.839469	376.668431	1155.835056	-34.099635	-120.390337	1161.757918	139.766688	443.293234	886.122496	-68.320564	-67.581518	980.132385	325.026503
3418	34.17000	134.191155	935.519472	39.150330	137.509466	1504.079638	95.733408	140.267262	1598.505078	241.989536	210.807297	938.089942	34.776287	57.574916	932.949011	43.524368	233.365309	515.494824	175.161128	3.558739	510.041792	95.848617	225.560055	77.843274	202.876156	-33.317844	222.986765	-221.484802	218.214070	19.732517	178.358466	-32.267199	212.781203	-278.089620	228.433779	53.993828	406.795246	-52.310479	59.334073	-145.055574	312.024629	1444.331440	32.642816	-47.631123	1448.675049	89.237451	377.956365	1155.948339	-30.775728	-118.428004	1162.076915	133.261351	441.913668	887.600046	-59.367301	-69.116452	977.437057	312.796590
3419	34.18000	136.093457	935.618912	38.341171	138.499280	1504.186114	94.816566	140.573727	1598.228198	241.147109	212.757201	938.488053	33.902886	59.429567	932.749785	42.779445	234.884248	514.789833	166.376773	4.992782	511.701622	103.374705	227.216198	77.604320	188.656031	-32.634279	224.030164	-208.723270	219.865918	19.833648	163.577466	-31.654172	213.600785	-264.830255	230.890977	51.872159	392.041324	-51.262985	61.547477	-132.076239	313.272948	1444.455948	33.220688	-46.094874	1449.029647	86.635434	379.244300	1156.061622	-27.451821	-116.465671	1162.395912	126.756014	440.534102	889.077596	-50.414038	-70.651386	974.741728	300.566678
3420	34.19000	137.995758	935.718352	37.532011	139.489093	1504.292591	93.899724	140.880192	1597.951318	240.304682	214.707105	938.886164	33.029485	61.284218	932.550558	42.034523	236.403187	514.084841	157.592418	6.426824	513.361451	110.900793	228.872341	77.365366	174.435905	-31.950714	225.073563	-195.961738	221.517766	19.934779	148.796465	-31.041145	214.420367	-251.570889	233.348176	49.750491	377.287402	-50.215491	63.760882	-119.096903	314.521266	1444.580455	33.798559	-44.558625	1449.384245	84.033416	380.532235	1156.174905	-24.127914	-114.503338	1162.714910	120.250678	439.154537	890.555146	-41.460775	-72.186319	972.046400	288.336765
3421	34.20000	139.898060	935.817791	36.722852	140.478906	1504.399068	92.982882	141.186657	1597.674438	239.462255	216.657009	939.284274	32.156084	63.138869	932.351332	41.289601	237.922126	513.379850	148.808062	7.860867	515.021280	118.426881	230.528485	77.126412	160.215780	-31.267149	226.116962	-183.200206	223.169614	20.035910	134.015464	-30.428118	215.239949	-238.311523	235.805374	47.628823	362.533480	-49.167997	65.974286	-106.117568	315.769585	1444.704963	34.376430	-43.022376	1449.738843	81.431398	381.820170	1156.288188	-20.804007	-112.541005	1163.033907	113.745341	437.774971	892.032696	-32.507512	-73.721253	969.351072	276.106852
3422	34.21000	141.800362	935.917231	35.913693	141.468719	1504.505545	92.066040	141.493122	1597.397558	238.619827	218.606913	939.682385	31.282683	64.993520	932.152105	40.544679	239.441065	512.674858	140.023707	9.294909	516.681109	125.952969	232.184628	76.887458	145.995655	-30.583584	227.160361	-170.438674	224.821461	20.137040	119.234463	-29.815091	216.059531	-225.052157	238.262572	45.507154	347.779558	-48.120503	68.187691	-93.138233	317.017903	1444.829470	34.954302	-41.486127	1450.093442	78.829381	383.108104	1156.401471	-17.480100	-110.578672	1163.352904	107.240004	436.395405	893.510246	-23.554248	-75.256187	966.655744	263.876939
3423	34.22000	143.702664	936.016671	35.104533	142.458533	1504.612022	91.149197	141.799588	1597.120678	237.777400	220.556817	940.080496	30.409282	66.848172	931.952879	39.799756	240.960005	511.969867	131.239352	10.728952	518.340938	133.479057	233.840771	76.648504	131.775530	-29.900019	228.203759	-157.677143	226.473309	20.238171	104.453462	-29.202064	216.879113	-211.792792	240.719771	43.385486	333.025635	-47.073009	70.401096	-80.158898	318.266222	1444.953978	35.532173	-39.949878	1450.448040	76.227363	384.396039	1156.514754	-14.156193	-108.616338	1163.671901	100.734667	435.015839	894.987797	-14.600985	-76.791121	963.960416	251.647026
